<?xml version="1.0" encoding="utf-8"?>
<!-- Generator: Adobe Illustrator 27.5.0, SVG Export Plug-In . SVG Version: 6.00 Build 0)  -->
<svg version="1.1" xmlns="http://www.w3.org/2000/svg" xmlns:xlink="http://www.w3.org/1999/xlink" x="0px" y="0px"
	 viewBox="0 0 750 500" style="enable-background:new 0 0 750 500;" xml:space="preserve">
<g id="BACKGROUND">
	<rect style="fill:#FFFFFF;" width="750" height="500"/>
</g>
<g id="OBJECTS">
	<path style="fill:#E8D9EB;" d="M544.222,154.402c0,0-92.305-15.376-190.741,26.915c-70.359,30.228-262.262-35.694-298.313,31.067
		c-36.052,66.761,35.226,136.888,190.341,145.238s95.958-42.979,269.195-16.616c159.467,24.268,189.486-20.984,189.326-75.144
		S629.061,163.828,544.222,154.402z"/>
	<g>
		<g>
			<path style="fill:#D55B5D;" d="M514.811,333.127c0,0,6.365,14.293,3.836,15.391c-2.529,1.097-7.437-10.639-7.437-10.639
				L514.811,333.127z"/>
			<path style="fill:#D55B5D;" d="M517.567,328.598c0,0,6.365,14.294,3.836,15.391c-2.529,1.097-7.437-10.639-7.437-10.639
				L517.567,328.598z"/>
			<path style="fill:#E38680;" d="M540.245,209.803l-9.086,43.358c0,0-12.246,44.965-16.196,61.327l14.003,3.386
				c0,0,22.529-52.491,24.924-61.231c2.395-8.74,5.326-33.211,5.326-33.211L540.245,209.803z"/>
			<path style="fill:#E38680;" d="M528.465,314.639c0,0,2.206,4.915,2.213,10.378c0.007,5.463-2.465,18.783-2.998,19.172
				c-0.089,0.065-0.241,0.101-0.434,0.116c-1.617,0.126-2.992-1.191-3.127-2.807L522.905,327c0,0-7.776,7.59-9.626,11.039
				c-1.849,3.45,2.781,14.159,1.231,15.62c-1.551,1.461-1.747,1.445-3.313-0.257c-1.566-1.703-4.679-13.444-4.675-19.05
				c0.004-5.606,8.872-21.631,8.872-21.631L528.465,314.639z"/>
			<g>
				<g>
					<g>
						<path style="fill:#E69848;" d="M653.854,218.431l-111.465-5.376c0,0,1.838-7.018,4.315-14.038s7.027-9.788,12.803-10.977
							c1.629-0.337,4.617-1.048,8.065-1.897c1.331-0.33,2.734-0.678,4.153-1.034c0.662-0.164,1.327-0.332,1.993-0.5
							c7.287-1.835,14.397-3.678,14.397-3.678l11.637-0.367l0.067-0.001l0.065,0.007l10.418,1.341c0,0,6.197,2.191,12.971,4.552
							c1.301,0.453,2.623,0.913,3.926,1.364c5.067,1.754,9.852,3.388,12.022,4.058c5.635,1.739,9.897,4.932,11.687,12.158
							C652.698,211.269,653.854,218.431,653.854,218.431z"/>
					</g>
				</g>
				<g>
					<g>
						<path style="fill:#E38680;" d="M627.2,187.827c-0.815,2.864-2.157,6.618-4.294,10.297
							c-4.184,7.209-11.407,14.134-23.646,13.544c-12.96-0.625-20.014-8.504-23.797-15.928c-2.105-4.124-3.199-8.107-3.737-10.631
							c0.662-0.164,1.327-0.332,1.993-0.5c7.287-1.835,14.397-3.678,14.397-3.678l11.637-0.367l0.067-0.001l0.065,0.007
							l10.418,1.341c0,0,6.197,2.191,12.971,4.552C624.575,186.916,625.897,187.376,627.2,187.827z"/>
					</g>
					<g>
						<g>
							<g>
								<path style="fill:#F2EDFD;" d="M585.067,182.855c-0.303-0.015-0.594-0.152-0.797-0.377
									c-0.051-0.056-0.096-0.116-0.135-0.181c-0.039-0.065-0.07-0.134-0.096-0.204c-0.025-0.07-0.045-0.145-0.057-0.218
									c-0.01-0.076-0.014-0.151-0.01-0.225c0.004-0.075,0.015-0.151,0.032-0.223c0.019-0.074,0.045-0.144,0.077-0.214
									c0.032-0.068,0.07-0.133,0.115-0.192c0.045-0.061,0.096-0.118,0.15-0.168c0.225-0.205,0.528-0.313,0.832-0.298
									c0.303,0.015,0.593,0.152,0.797,0.377c0.051,0.054,0.096,0.116,0.135,0.181c0.037,0.063,0.071,0.132,0.096,0.203
									c0.026,0.072,0.043,0.144,0.055,0.22c0.012,0.074,0.016,0.151,0.012,0.225c-0.004,0.075-0.015,0.149-0.034,0.223
									c-0.019,0.072-0.043,0.144-0.076,0.212c-0.032,0.068-0.072,0.133-0.115,0.194c-0.045,0.061-0.096,0.117-0.152,0.167
									c-0.056,0.051-0.116,0.096-0.182,0.135c-0.065,0.037-0.134,0.07-0.205,0.096c-0.07,0.025-0.144,0.043-0.218,0.055
									C585.217,182.854,585.141,182.858,585.067,182.855z"/>
							</g>
						</g>
						<g>
							<g>
								<path style="fill:#F2EDFD;" d="M599.18,195.29l-0.002,0c-0.635-0.033-1.124-0.575-1.09-1.21l0,0
									c0.033-0.637,0.573-1.124,1.21-1.091l0,0c0,0,0,0-0.002,0l0,0c0.637,0.033,1.126,0.574,1.093,1.21l0,0
									c-0.034,0.635-0.573,1.122-1.206,1.092l0,0C599.182,195.29,599.18,195.29,599.18,195.29z M601.042,194.195
									c-0.058-0.634,0.41-1.193,1.043-1.252l0,0c0,0,0,0,0.002,0l0,0c0.633-0.056,1.193,0.411,1.25,1.045l0,0
									c0.058,0.634-0.411,1.194-1.045,1.251l0,0c-0.054,0.005-0.106,0.005-0.16,0.002l0,0
									C601.566,195.214,601.093,194.774,601.042,194.195z M596.087,194.917c-0.625-0.123-1.032-0.729-0.909-1.353l0,0
									c0.122-0.625,0.728-1.032,1.353-0.908l0,0l0,0l0,0c0.625,0.12,1.03,0.727,0.908,1.351l0,0
									c-0.11,0.57-0.623,0.956-1.185,0.929l0,0C596.198,194.934,596.142,194.928,596.087,194.917z M603.982,193.883
									c-0.17-0.614,0.189-1.248,0.803-1.419l0,0c0.612-0.171,1.248,0.189,1.417,0.803l0,0c0.171,0.612-0.189,1.248-0.801,1.419
									l-0.002,0c-0.121,0.033-0.243,0.046-0.362,0.04l0,0C604.554,194.703,604.118,194.374,603.982,193.883z M593.053,194.042
									c-0.592-0.234-0.883-0.902-0.651-1.495l0,0c0.232-0.592,0.9-0.883,1.493-0.651l0,0c0.592,0.232,0.883,0.902,0.651,1.493l0,0
									c-0.184,0.474-0.648,0.753-1.127,0.73l0,0C593.295,194.113,593.174,194.088,593.053,194.042z M606.815,193.031
									c-0.3-0.563-0.087-1.26,0.473-1.56l0,0l0,0l0,0c0.56-0.3,1.26-0.089,1.56,0.473l0,0c0.3,0.561,0.088,1.258-0.473,1.56l0,0
									c-0.189,0.1-0.397,0.144-0.597,0.135l0,0C607.386,193.62,607.014,193.402,606.815,193.031z M590.217,192.563
									c-0.529-0.354-0.669-1.07-0.315-1.599l0,0c0.356-0.527,1.07-0.667,1.599-0.313l0,0c0.529,0.354,0.669,1.071,0.315,1.6l0,0
									c-0.234,0.346-0.623,0.527-1.015,0.509l0,0C590.6,192.749,590.397,192.686,590.217,192.563z M609.387,191.567
									c-0.425-0.473-0.388-1.201,0.084-1.628l0,0c0.472-0.425,1.201-0.388,1.628,0.084l0,0c0.425,0.472,0.388,1.201-0.084,1.628
									l0,0c-0.235,0.212-0.534,0.309-0.828,0.295l0,0C609.893,191.932,609.603,191.804,609.387,191.567z M587.774,190.469
									L587.774,190.469c-0.431-0.469-0.402-1.198,0.067-1.629l0,0c0.469-0.431,1.198-0.4,1.629,0.069l0,0l0,0l0,0
									c0.431,0.469,0.4,1.198-0.069,1.627l0,0c-0.236,0.217-0.539,0.318-0.836,0.304l0,0
									C588.274,190.826,587.988,190.7,587.774,190.469z M611.532,189.523c-0.527-0.36-0.659-1.078-0.299-1.603l0,0
									c0.36-0.525,1.078-0.657,1.603-0.298l0,0c0.525,0.36,0.658,1.076,0.298,1.601l0,0c-0.234,0.342-0.621,0.518-1.007,0.499l0,0
									C611.92,189.712,611.714,189.649,611.532,189.523z M585.886,187.869L585.886,187.869c-0.314-0.554-0.118-1.258,0.435-1.571
									l0,0c0.553-0.314,1.257-0.118,1.571,0.435l0,0c0.314,0.553,0.118,1.257-0.435,1.571l0,0
									c-0.198,0.112-0.411,0.159-0.622,0.149l0,0C586.453,188.434,586.088,188.226,585.886,187.869z M613.142,187.037
									c-0.588-0.24-0.871-0.913-0.629-1.501l0,0l0,0l0,0c0.24-0.59,0.913-0.873,1.503-0.631l0,0
									c0.588,0.24,0.871,0.913,0.629,1.503l0,0c-0.19,0.464-0.647,0.738-1.121,0.715l0,0
									C613.396,187.117,613.268,187.089,613.142,187.037z M584.614,184.942L584.614,184.942c-0.192-0.607,0.143-1.254,0.75-1.446
									l0,0c0.606-0.194,1.253,0.141,1.446,0.749l0,0l0,0l0,0c0.192,0.605-0.143,1.254-0.748,1.446l0,0
									c-0.135,0.044-0.272,0.06-0.405,0.054l0,0C585.19,185.722,584.764,185.415,584.614,184.942z"/>
							</g>
						</g>
						<g>
							<g>
								<path style="fill:#F2EDFD;" d="M614.342,184.267c-0.075-0.004-0.149-0.015-0.223-0.034
									c-0.072-0.019-0.144-0.044-0.212-0.076c-0.068-0.032-0.133-0.072-0.195-0.115c-0.061-0.045-0.116-0.096-0.168-0.152
									c-0.051-0.056-0.096-0.116-0.134-0.181c-0.039-0.065-0.072-0.134-0.098-0.205c-0.026-0.07-0.043-0.144-0.055-0.218
									c-0.012-0.076-0.014-0.151-0.01-0.225c0.004-0.075,0.013-0.151,0.032-0.226c0.019-0.072,0.043-0.142,0.076-0.212
									c0.032-0.068,0.072-0.133,0.117-0.192c0.043-0.061,0.094-0.119,0.15-0.168c0.056-0.051,0.116-0.096,0.182-0.135
									c0.065-0.039,0.134-0.07,0.205-0.096c0.07-0.025,0.144-0.045,0.218-0.057c0.151-0.021,0.303-0.014,0.451,0.022
									c0.072,0.019,0.144,0.046,0.212,0.078c0.068,0.032,0.133,0.07,0.193,0.115c0.061,0.045,0.118,0.096,0.169,0.152
									c0.049,0.054,0.094,0.116,0.133,0.181c0.039,0.063,0.07,0.132,0.096,0.203c0.025,0.072,0.045,0.145,0.057,0.218
									c0.01,0.076,0.014,0.153,0.01,0.228c-0.004,0.075-0.015,0.149-0.032,0.223c-0.019,0.072-0.045,0.144-0.078,0.212
									c-0.032,0.068-0.07,0.133-0.115,0.194c-0.045,0.061-0.096,0.117-0.15,0.168c-0.056,0.051-0.118,0.096-0.183,0.135
									c-0.063,0.037-0.132,0.071-0.203,0.096c-0.07,0.025-0.144,0.043-0.218,0.055
									C614.494,184.266,614.417,184.27,614.342,184.267z"/>
							</g>
						</g>
					</g>
					<g>
						<path style="fill:#F2EDFD;" d="M622.905,198.124c-4.184,7.209-11.407,14.134-23.646,13.544
							c-12.96-0.625-20.014-8.504-23.797-15.928C585.936,198.844,603.84,202.359,622.905,198.124z"/>
					</g>
				</g>
				<g>
					<polygon style="fill:#5848BC;" points="599.885,180.56 599.885,180.57 599.82,180.563 					"/>
				</g>
				<g>
					<polygon style="fill:#5848BC;" points="599.82,180.563 599.753,180.564 599.753,180.554 					"/>
				</g>
			</g>
			<g>
				<g>
					
						<ellipse transform="matrix(0.9928 -0.1194 0.1194 0.9928 -12.2831 72.7557)" style="fill:#DD504F;" cx="600.834" cy="138.852" rx="28.281" ry="28.281"/>
				</g>
				<g>
					<g>
						<path style="fill:#E38680;" d="M609.98,184.745c0,0-3.146,5.26-11.212,4.871c-7.793-0.376-10.801-6.202-10.801-6.202
							l0.664-3.861l0.112-0.649l1.044-6.08l19.254,1.468l0.21,2.342l0.069,0.767L609.98,184.745z"/>
					</g>
					<g>
						<path style="fill:#3B2539;" d="M609.251,176.634c-4.546,3.492-11.68,4.56-20.619,2.92l0.112-0.649l1.044-6.08l19.254,1.468
							L609.251,176.634z"/>
					</g>
				</g>
				<g>
					<g>
						<path style="fill:#D55B5D;" d="M583.315,156.559c-4.603,5.812-13.694,1.296-12.676-6.664c0.924-7.221,8.964-5.681,8.964-5.681
							L583.315,156.559z"/>
					</g>
					<g>
						<path style="fill:#F2EDFD;" d="M577.623,156.215c-0.039,0.807-0.725,1.43-1.532,1.391c-0.807-0.039-1.43-0.725-1.391-1.532
							c0.039-0.807,0.725-1.43,1.532-1.391C577.039,154.722,577.662,155.408,577.623,156.215z"/>
					</g>
					<g>
						<path style="fill:#B33A41;" d="M579.338,156.521c-0.259-0.013-0.486-0.2-0.537-0.465c-0.677-3.477-4.082-6.844-4.117-6.878
							c-0.227-0.223-0.231-0.587-0.009-0.815c0.223-0.227,0.587-0.231,0.815-0.009c0.151,0.147,3.697,3.655,4.441,7.48
							c0.061,0.312-0.143,0.615-0.455,0.676C579.43,156.52,579.383,156.523,579.338,156.521z"/>
					</g>
					<g>
						<path style="fill:#B33A41;" d="M578.01,153.191c-0.06-0.003-0.122-0.016-0.181-0.039c-1.551-0.604-3.073-0.356-3.088-0.353
							c-0.312,0.054-0.611-0.158-0.665-0.47c-0.054-0.313,0.155-0.611,0.468-0.665c0.074-0.013,1.842-0.309,3.703,0.415
							c0.297,0.115,0.444,0.449,0.328,0.746C578.483,153.061,578.251,153.202,578.01,153.191z"/>
					</g>
				</g>
				<g>
					<g>
						<path style="fill:#D55B5D;" d="M615.248,158.099c4.022,6.228,13.506,2.608,13.258-5.413c-0.225-7.276-8.375-6.517-8.375-6.517
							L615.248,158.099z"/>
					</g>
					<g>
						<path style="fill:#F2EDFD;" d="M623.87,158.446c-0.039,0.807-0.725,1.43-1.532,1.391c-0.807-0.039-1.43-0.725-1.391-1.532
							c0.039-0.807,0.725-1.43,1.532-1.391C623.286,156.953,623.909,157.639,623.87,158.446z"/>
					</g>
					<g>
						<path style="fill:#B33A41;" d="M619.211,158.444c-0.045-0.002-0.091-0.01-0.137-0.023c-0.305-0.091-0.479-0.411-0.388-0.717
							c1.11-3.736,4.977-6.886,5.141-7.018c0.248-0.2,0.61-0.16,0.81,0.087c0.2,0.247,0.161,0.61-0.087,0.81
							c-0.038,0.03-3.753,3.061-4.76,6.45C619.714,158.292,619.47,158.456,619.211,158.444z"/>
					</g>
					<g>
						<path style="fill:#B33A41;" d="M620.852,155.257c-0.241-0.012-0.458-0.175-0.527-0.419c-0.086-0.306,0.092-0.625,0.398-0.711
							c1.921-0.542,3.652-0.077,3.725-0.057c0.307,0.084,0.487,0.402,0.402,0.709c-0.084,0.306-0.402,0.486-0.707,0.403
							c-0.018-0.005-1.508-0.396-3.108,0.055C620.975,155.253,620.913,155.26,620.852,155.257z"/>
					</g>
				</g>
				<g>
					<path style="fill:#E38680;" d="M578.31,135.33c0,0-2.736,12.96,2.107,25.998c4.389,11.817,10.798,15.743,17.796,16.191
						c7.96,0.509,24.862-3.293,24.045-41.217C621.706,110.677,581.662,109.65,578.31,135.33z"/>
				</g>
				<g>
					<path style="fill:#DD504F;" d="M616.666,128.706c0,0,3.236,10.264,5.096,12.943l2.501-6.584c0,0-0.647-19.385-23.015-20.464
						c-23.125-1.115-23.263,18.232-23.263,18.232l1.543,9.187c0,0,6.24-8.395,6.957-14.129c0,0,7.323,8.942,14.53,8.264
						c0,0-2.489-2.94-3.088-5.148c0,0,12.19,7.203,20.674,5.227C618.602,136.235,616.625,133.063,616.666,128.706z"/>
				</g>
				<g>
					<path style="fill:#DD504F;" d="M585.43,142.305c0,0,3.257-4.098,8.542-4.395c0.859-0.048,1.581,0.643,1.591,1.504l0,0.014
						c0.01,0.871-0.71,1.57-1.581,1.54C592.006,140.901,588.525,141.015,585.43,142.305z"/>
				</g>
				<g>
					<path style="fill:#DD504F;" d="M614.931,143.728c0,0-2.848-4.393-8.079-5.196c-0.851-0.131-1.635,0.488-1.729,1.344
						l-0.002,0.014c-0.094,0.866,0.556,1.631,1.425,1.685C608.521,141.698,611.974,142.146,614.931,143.728z"/>
				</g>
				<g>
					<path style="fill:#D55B5D;" d="M599.529,170.785c-1.641-0.079-2.909-0.714-2.994-0.758c-0.236-0.121-0.329-0.41-0.208-0.646
						c0.121-0.235,0.41-0.329,0.646-0.209l0,0c0.029,0.015,2.927,1.456,5.375,0.009c0.228-0.135,0.523-0.06,0.658,0.169
						c0.135,0.228,0.059,0.523-0.169,0.658C601.719,170.668,600.551,170.834,599.529,170.785z"/>
				</g>
				<g>
					<path style="fill:#D55B5D;" d="M601.817,158.645c-0.013-0.001-0.026-0.002-0.039-0.003l-3.493-0.452
						c-0.263-0.034-0.448-0.275-0.415-0.538c0.034-0.263,0.277-0.445,0.538-0.415l2.921,0.378l-0.485-8.959
						c-0.014-0.265,0.189-0.491,0.454-0.505c0.264-0.015,0.491,0.189,0.505,0.454l0.516,9.535c0.008,0.142-0.048,0.281-0.153,0.378
						C602.072,158.605,601.946,158.651,601.817,158.645z"/>
				</g>
				<g>
					<path style="fill:#F2EDFD;" d="M592.409,162.024c4.28,0.88,8.662,1.384,14.592,0.499c0,0-0.811,6.255-7.789,5.946
						C593.277,168.207,592.409,162.024,592.409,162.024z"/>
				</g>
				<g>
					<path style="fill:#3B2539;" d="M592.728,148.215c-0.08,1.663-0.901,2.975-1.833,2.93c-0.932-0.045-1.623-1.43-1.543-3.093
						c0.08-1.663,0.901-2.975,1.833-2.93C592.117,145.167,592.808,146.552,592.728,148.215z"/>
				</g>
				<g>
					<path style="fill:#3B2539;" d="M610.686,149.081c-0.08,1.663-0.901,2.975-1.833,2.93c-0.932-0.045-1.623-1.43-1.543-3.093
						c0.08-1.663,0.901-2.975,1.833-2.93C610.076,146.033,610.767,147.418,610.686,149.081z"/>
				</g>
				<g>
					<g>
						<path style="fill:#D55B5D;" d="M586.259,154.094c-0.014,0.286-0.257,0.507-0.543,0.493c-0.286-0.014-0.507-0.257-0.493-0.543
							c0.014-0.286,0.257-0.507,0.543-0.493C586.052,153.565,586.273,153.808,586.259,154.094z"/>
					</g>
					<g>
						<path style="fill:#D55B5D;" d="M588.727,155.465c-0.014,0.286-0.257,0.507-0.543,0.493c-0.286-0.014-0.507-0.257-0.493-0.543
							c0.014-0.286,0.257-0.507,0.543-0.493C588.52,154.936,588.741,155.179,588.727,155.465z"/>
					</g>
					<g>
						<path style="fill:#D55B5D;" d="M586.112,157.144c-0.014,0.286-0.257,0.507-0.543,0.493c-0.286-0.014-0.507-0.257-0.493-0.543
							s0.257-0.507,0.543-0.493C585.905,156.615,586.126,156.858,586.112,157.144z"/>
					</g>
					<g>
						<path style="fill:#D55B5D;" d="M590.062,157.853c-0.014,0.286-0.257,0.507-0.543,0.493c-0.286-0.014-0.507-0.257-0.493-0.543
							c0.014-0.286,0.257-0.507,0.543-0.493C589.855,157.324,590.076,157.567,590.062,157.853z"/>
					</g>
					<g>
						<path style="fill:#D55B5D;" d="M592.736,157.463c-0.014,0.286-0.257,0.507-0.543,0.493c-0.286-0.014-0.507-0.257-0.493-0.543
							c0.014-0.286,0.257-0.507,0.543-0.493C592.529,156.934,592.75,157.177,592.736,157.463z"/>
					</g>
					<g>
						<path style="fill:#D55B5D;" d="M591.653,154.873c-0.014,0.286-0.257,0.507-0.543,0.493c-0.286-0.014-0.507-0.257-0.493-0.543
							c0.014-0.286,0.257-0.507,0.543-0.493C591.447,154.344,591.667,154.587,591.653,154.873z"/>
					</g>
				</g>
				<g>
					<g>
						<path style="fill:#D55B5D;" d="M614.194,155.441c-0.014,0.286,0.207,0.529,0.493,0.543c0.286,0.014,0.529-0.207,0.543-0.493
							c0.014-0.286-0.207-0.529-0.493-0.543C614.451,154.934,614.208,155.155,614.194,155.441z"/>
					</g>
					<g>
						<path style="fill:#D55B5D;" d="M611.606,156.569c-0.014,0.286,0.207,0.529,0.493,0.543c0.286,0.014,0.529-0.207,0.543-0.493
							c0.014-0.286-0.207-0.529-0.493-0.543C611.863,156.062,611.62,156.283,611.606,156.569z"/>
					</g>
					<g>
						<path style="fill:#D55B5D;" d="M614.047,158.491c-0.014,0.286,0.207,0.529,0.493,0.543c0.286,0.014,0.529-0.207,0.543-0.493
							c0.014-0.286-0.207-0.529-0.493-0.543S614.061,158.205,614.047,158.491z"/>
					</g>
					<g>
						<path style="fill:#D55B5D;" d="M610.048,158.817c-0.014,0.286,0.207,0.529,0.493,0.543s0.529-0.207,0.543-0.493
							c0.014-0.286-0.207-0.529-0.493-0.543C610.305,158.311,610.061,158.531,610.048,158.817z"/>
					</g>
					<g>
						<path style="fill:#D55B5D;" d="M607.424,158.172c-0.014,0.286,0.207,0.529,0.493,0.543c0.286,0.014,0.529-0.207,0.543-0.493
							c0.014-0.286-0.207-0.529-0.493-0.543C607.68,157.665,607.437,157.886,607.424,158.172z"/>
					</g>
					<g>
						<path style="fill:#D55B5D;" d="M608.75,155.697c-0.014,0.286,0.207,0.529,0.493,0.543c0.286,0.014,0.529-0.207,0.543-0.493
							s-0.207-0.529-0.493-0.543C609.007,155.191,608.764,155.411,608.75,155.697z"/>
					</g>
				</g>
			</g>
			<path style="fill:#E69848;" d="M553.741,203.721l2.319,77.547l-8.117,30.537h99.341l-7.731-27.831l4.639-72.271
				C644.192,211.703,586.865,221.451,553.741,203.721z"/>
			<path style="fill:#684868;" d="M662.825,399.046h-49.606l-13.976-54.988l-4.091,2.181l-6.516,50.504c0,0-0.065,0.899-0.15,2.303
				h-47.883c-0.824-23.207-1.676-46.254-0.58-56.121c2.312-20.876,12.806-49.484,12.806-49.484c53.416,12.376,89.354,0,89.354,0
				s17.468,28.028,18.432,69.817C660.859,373.63,661.72,386.324,662.825,399.046z"/>
			<path style="fill:#E69848;" d="M642.131,192.986c0,0,8.925,2.719,18.396,17.214l-18.396,21.646V192.986z"/>
			<polygon style="fill:#D55B5D;" points="660.011,210.775 678.722,238.053 661.542,252.35 641.973,228.693 			"/>
			<path style="fill:#E38680;" d="M680.377,221.28l-18.014-41.037l-15.07,1.462l14.249,70.644c0,0,7.666,7.29,14.974,5.35
				c7.308-1.94,10.659-8.761,11.096-12.307C688.049,241.846,680.377,221.28,680.377,221.28z"/>
			<path style="fill:#E38680;" d="M637.263,163.083c2.044,0.24,5.498,1.421,8.339,2.497l2.626-8.144l-0.006-0.002
				c0.128-0.45,0.427-1.375,0.832-2.56l0.001-0.002h0c1.355-3.967,3.899-10.874,5.211-12.887c1.705-2.614,3.254-0.568,2.651,1.14
				c-0.465,1.318-2.488,10.049-3.388,13.972l0.16,0.08c1.196-3.615,4.142-11.79,5.59-14.01c1.705-2.614,3.254-0.568,2.651,1.14
				c-0.521,1.475-2.994,12.243-3.658,15.15l0.122,0.061c1.32-3.897,3.977-11.16,5.329-13.232c1.705-2.614,3.254-0.568,2.651,1.14
				c-0.398,1.128-1.936,7.685-2.936,12.012c1.503-3.287,3.343-7.046,4.351-8.35c1.75-2.263,3.015-0.28,2.339,1.237
				c-0.463,1.039-2.478,7.329-3.702,11.19l-5.538,13.317l2.397,5.839l-15.884-0.59l-1.893-6.428l-2.513-2.715
				c-2.235-1.801-4.357-5.236-5.842-6.123C634.673,165.33,633.337,162.621,637.263,163.083z"/>
			<g>
				<path style="fill:#D55B5D;" d="M662.837,163.488c-0.063,0.001-0.126-0.012-0.186-0.042l-12.106-6.07
					c-0.195-0.098-0.274-0.335-0.176-0.53c0.097-0.195,0.334-0.275,0.53-0.176l12.106,6.07c0.195,0.098,0.274,0.335,0.176,0.53
					C663.113,163.405,662.978,163.484,662.837,163.488z"/>
			</g>
			<g>
				<path style="fill:#D55B5D;" d="M651.679,171.17c-0.174,0.004-0.336-0.108-0.388-0.284c-0.932-3.174-4.12-4.669-4.152-4.684
					c-0.198-0.091-0.285-0.325-0.194-0.523c0.091-0.199,0.324-0.286,0.523-0.195c0.144,0.066,3.546,1.653,4.581,5.18
					c0.062,0.209-0.058,0.428-0.268,0.49C651.747,171.164,651.712,171.169,651.679,171.17z"/>
			</g>
			<path style="fill:#E69848;" d="M552.614,190.795c0,0-5.829,2.591-10.225,11.675c-4.396,9.084-7.875,20.1-7.875,20.1l23.386,7.924
				C557.9,230.494,558.538,194.388,552.614,190.795z"/>
			<path style="fill:#DD504F;" d="M581.308,118.394c0,0,3.625-11.199,16.999-13.473c13.373-2.273,24.607,4.012,24.607,4.012
				l-2.942,2.477c0,0,8.96,1.937,12.972,9.426c0,0-2.808,1.07-3.745,1.07c0,0,7.293,6.553,5.585,15.246l-6.273-1.337
				c0,0-11.86-13.507-19.762-16.449C600.848,116.422,581.308,118.394,581.308,118.394z"/>
			<path style="fill:#DD504F;" d="M585.223,117.592c0,0-12.125-2.608-16.638,6.419h4.313c0,0-3.009,1.605-4.313,5.216
				c0,0,1.493,1.605,8.319-1.605C583.73,124.413,585.223,117.592,585.223,117.592z"/>
		</g>
		<g>
			<polygon style="fill:#E48888;" points="395.408,227.521 379.62,229.502 359.128,212.495 384.475,196.802 395.408,196.802 			"/>
			<path style="fill:#ECB6A0;" d="M390.942,153.25l-11.322,76.252c0,0-17.584,1.612-23.111-12.696s16.974-61.747,16.974-61.747
				L390.942,153.25z"/>
			<path style="fill:#ECB6A0;" d="M407.395,136.004c-2.486-0.041-6.81,0.818-10.385,1.651l-1.836-10.172l0.008-0.001
				c-0.081-0.56-0.291-1.715-0.585-3.198l0-0.003l0,0c-0.986-4.967-2.922-13.645-4.17-16.266c-1.621-3.403-3.805-1.202-3.357,0.939
				c0.345,1.652,1.365,12.431,1.813,17.272l-0.205,0.07c-0.852-4.521-3.066-14.781-4.443-17.672
				c-1.621-3.403-3.805-1.202-3.358,0.939c0.386,1.85,1.618,15.139,1.947,18.726l-0.156,0.053c-0.955-4.878-2.97-14-4.256-16.698
				c-1.622-3.403-3.805-1.202-3.357,0.939c0.295,1.414,1.085,9.511,1.587,14.853c-1.272-4.177-2.871-8.973-3.869-10.696
				c-1.732-2.991-3.565-0.819-2.999,1.105c0.388,1.318,1.79,9.173,2.635,13.992l2.3,16.09l-1.523,8.872l16.59,4.311l1.167-7.861
				l7.022-7.739c2.965-1.797,7.041-4.199,8.962-5.023C410.136,139.11,412.169,136.082,407.395,136.004z"/>
			<g>
				<path style="fill:#E48888;" d="M376.711,132.383c0.075,0.012,0.153,0.006,0.229-0.02l15.469-5.324
					c0.249-0.086,0.382-0.357,0.296-0.606c-0.085-0.249-0.356-0.383-0.606-0.296l-15.469,5.324
					c-0.249,0.086-0.382,0.357-0.296,0.606C376.394,132.239,376.542,132.356,376.711,132.383z"/>
			</g>
			<g>
				<path style="fill:#E48888;" d="M388.837,143.372c0.208,0.033,0.42-0.076,0.51-0.278c1.625-3.651,5.682-4.929,5.723-4.942
					c0.252-0.077,0.393-0.344,0.317-0.595c-0.077-0.252-0.342-0.395-0.595-0.318c-0.183,0.055-4.511,1.409-6.317,5.467
					c-0.107,0.241,0.001,0.522,0.242,0.63C388.756,143.354,388.797,143.366,388.837,143.372z"/>
			</g>
			<path style="fill:#4F1E4A;" d="M412.352,315.986c0,0-8.024,67.428-9.629,83.061h47.342l9.629-46.151l2.057,1.204l6.368,44.947
				h42.928v-85.412L412.352,315.986z"/>
			<path style="fill:#DD504F;" d="M508.695,198.821c-2.875-1.151-9.93-4.598-16.975-8.124c-1.035-0.516-2.069-1.037-3.088-1.551
				c-0.958-0.482-1.903-0.96-2.827-1.426c-0.241-0.121-0.48-0.243-0.719-0.362c-1.888-0.956-3.666-1.862-5.233-2.662
				c-3.771-1.922-6.338-3.244-6.338-3.244c-0.01,0.002-0.02,0.004-0.028,0.006c-5.663,1.36-11.499,1.756-17.268,1.189
				c-1.045-0.102-2.089-0.237-3.13-0.406c-1.052-0.165-2.101-0.366-3.146-0.601l-0.834-0.187c0,0-0.026,0.014-0.08,0.042
				c-0.462,0.245-2.891,1.535-6.286,3.317c-1.541,0.811-3.283,1.72-5.127,2.682c-0.233,0.122-0.47,0.245-0.707,0.368
				c-2.25,1.171-4.633,2.403-6.987,3.608c-6.338,3.246-12.447,6.286-15.113,7.352c-6.597,2.64-7.696,16.272-7.696,16.272
				l1.495,103.434h101.905l5.876-103.434C516.389,215.093,515.29,201.461,508.695,198.821z"/>
			<g>
				<g>
					<g>
						<path style="fill:#A73034;" d="M485.804,187.72c-0.374,1.093-0.804,2.21-1.3,3.325c-1.957,4.402-4.524,7.913-7.632,10.436
							c-3.895,3.162-8.642,4.765-14.112,4.765c-11.427,0-18.48-6.696-22.385-12.311c-1.459-2.099-2.598-4.209-3.467-6.073
							c0.237-0.123,0.474-0.247,0.707-0.368c0.854,1.84,1.981,3.929,3.427,6.007c5.522,7.929,12.829,11.949,21.718,11.949
							c9.602,0,16.672-4.956,21.015-14.727c0.502-1.129,0.936-2.26,1.31-3.365C485.324,187.477,485.563,187.598,485.804,187.72z"/>
					</g>
				</g>
				<g>
					<path style="fill:#FCF6F0;" d="M479.852,184.695c-1.376,5.922-6.589,14.93-18.102,14.93c-12.638,0-17.387-10.227-19.008-14.814
						c3.395-1.782,5.824-3.072,6.286-3.317c0.054-0.028,0.08-0.042,0.08-0.042l0.834,0.187c1.045,0.235,2.095,0.436,3.146,0.601
						c1.041,0.169,2.085,0.305,3.13,0.406c5.768,0.568,11.605,0.171,17.268-1.189c0.008-0.002,0.018-0.004,0.028-0.006
						C473.515,181.452,476.081,182.774,479.852,184.695z"/>
				</g>
				<g>
					<g>
						<g>
							<g>
								<g>
									<g>
										<g>
											<path style="fill:#ECB6A0;" d="M474.07,184.234c0,0-2.143,6.736-11.991,6.736c-11.486,0-14.19-6.124-14.19-6.124
												c0.998-2.646,1.684-5.095,2.147-7.285h0.003c0.851-4.011,0.971-7.162,0.919-9.094l20.179-0.799
												c0.187,1.708,0.49,3.72,0.833,5.744C472.882,178.787,474.07,184.234,474.07,184.234z"/>
										</g>
									</g>
								</g>
							</g>
						</g>
						<g>
							<g>
								<g>
									<g>
										<g>
											<path style="fill:#3B2539;" d="M471.969,173.413c-3.126,2.174-9.961,5.411-21.93,4.149
												c0.851-4.011,0.971-7.162,0.919-9.094l20.179-0.799C471.323,169.378,471.627,171.389,471.969,173.413z"/>
										</g>
									</g>
								</g>
							</g>
						</g>
					</g>
					<g>
						<g>
							<g>
								<g>
									<g>
										<g>
											<g>
												<path style="fill:#ECB6A0;" d="M443.255,142.153c0,0-6.245-8.5-11.102-3.469c-4.857,5.031,4.51,22.551,13.01,18.735
													L443.255,142.153z"/>
											</g>
										</g>
									</g>
								</g>
							</g>
							<g>
								<g>
									<g>
										<g>
											<g>
												<path style="fill:#E48888;" d="M440.277,152.197c-0.212,0-0.397-0.156-0.427-0.372
													c-0.821-5.906-5.515-9.531-5.563-9.567c-0.189-0.144-0.227-0.415-0.082-0.605c0.144-0.19,0.414-0.227,0.604-0.083
													c0.205,0.155,5.026,3.88,5.895,10.135c0.033,0.236-0.132,0.454-0.368,0.487
													C440.317,152.196,440.297,152.197,440.277,152.197z"/>
											</g>
										</g>
									</g>
								</g>
							</g>
							<g>
								<g>
									<g>
										<g>
											<g>
												<path style="fill:#E48888;" d="M438.969,147.956c-0.138,0-0.274-0.067-0.358-0.19c-0.627-0.927-2.501-1.021-3.168-0.98
													c-0.24,0.017-0.443-0.166-0.458-0.404c-0.015-0.238,0.166-0.442,0.404-0.457c0.119-0.008,2.908-0.163,3.937,1.358
													c0.134,0.197,0.082,0.465-0.116,0.599C439.136,147.932,439.052,147.956,438.969,147.956z"/>
											</g>
										</g>
									</g>
								</g>
							</g>
						</g>
					</g>
					<g>
						<g>
							<g>
								<g>
									<g>
										<g>
											<g>
												<path style="fill:#ECB6A0;" d="M481.299,142.153c0,0,6.245-8.5,11.102-3.469c4.857,5.031-4.51,22.551-13.01,18.735
													L481.299,142.153z"/>
											</g>
										</g>
									</g>
								</g>
							</g>
							<g>
								<g>
									<g>
										<g>
											<g>
												<path style="fill:#E48888;" d="M484.277,152.197c-0.02,0-0.04-0.001-0.06-0.004c-0.236-0.033-0.401-0.251-0.368-0.486
													c0.869-6.255,5.69-9.98,5.895-10.135c0.19-0.144,0.46-0.107,0.604,0.083c0.144,0.19,0.107,0.46-0.082,0.605
													c-0.048,0.036-4.743,3.673-5.563,9.566C484.674,152.041,484.489,152.197,484.277,152.197z"/>
											</g>
										</g>
									</g>
								</g>
							</g>
							<g>
								<g>
									<g>
										<g>
											<g>
												<path style="fill:#E48888;" d="M485.585,147.956c-0.083,0-0.167-0.024-0.242-0.074
													c-0.197-0.133-0.249-0.402-0.115-0.599c1.029-1.521,3.818-1.365,3.937-1.358c0.237,0.015,0.418,0.219,0.403,0.457
													c-0.014,0.238-0.222,0.421-0.457,0.404c-0.671-0.04-2.544,0.057-3.169,0.98
													C485.859,147.889,485.723,147.956,485.585,147.956z"/>
											</g>
										</g>
									</g>
								</g>
							</g>
						</g>
					</g>
					<g>
						<g>
							<g>
								<g>
									<g>
										<path style="fill:#ECB6A0;" d="M466.265,115.795c-17.798-0.008-28.852,9.215-26.865,30.385
											c1.186,12.636,7.685,28.269,22.678,28.622c15.625,0.368,21.895-16.646,24.126-29.554
											c2.042-11.814-3.967-24.91-15.36-28.644C470.055,116.344,467.264,115.795,466.265,115.795z"/>
									</g>
									<g>
										<path style="fill:#3B2539;" d="M439.195,142.315c0,0-2.07-20.067-2.131-24.515c-0.147-10.815,10.764-16.882,26.78-16.847
											c12.915,0.028,14.507,5.683,15.548,10.26c0,0,9.549,0.245,11.005,6.903c1.456,6.658-4.604,26.764-4.604,26.764
											s-2.032-4.628-3.488-11.286c-1.457-6.658-3.351-10.733-7.513-10.817c-4.161-0.084-9.363,0.125-14.981,3.454
											c-5.618,3.329-11.236,3.745-15.189,0.832C444.621,127.063,443.564,137.113,439.195,142.315z"/>
									</g>
								</g>
							</g>
						</g>
					</g>
					<g style="opacity:0.5;">
						<g>
							<path style="fill:#E48888;" d="M454.693,150.69c0,1.51-2.788,2.734-6.226,2.734c-3.439,0-6.226-1.224-6.226-2.734
								c0-1.51,2.788-2.734,6.226-2.734C451.905,147.956,454.693,149.18,454.693,150.69z"/>
						</g>
					</g>
					<g style="opacity:0.5;">
						<g>
							<path style="fill:#E48888;" d="M483.986,150.69c0,1.51-2.788,2.734-6.226,2.734c-3.439,0-6.226-1.224-6.226-2.734
								c0-1.51,2.788-2.734,6.226-2.734C481.198,147.956,483.986,149.18,483.986,150.69z"/>
						</g>
					</g>
					<g>
						<g>
							<path style="fill:#E48888;" d="M463.325,156.001c-0.742,0-1.557-0.195-2.453-0.583c-0.252-0.109-0.401-0.372-0.365-0.644
								l1.249-9.594c0.044-0.337,0.354-0.575,0.69-0.531c0.337,0.044,0.575,0.353,0.531,0.69l-1.188,9.12
								c1.225,0.449,2.171,0.41,2.952-0.117c0.282-0.19,0.665-0.116,0.855,0.166c0.19,0.282,0.115,0.665-0.166,0.855
								C464.799,155.788,464.102,156.001,463.325,156.001z"/>
						</g>
					</g>
					<g>
						<g>
							<path style="fill:#E48888;" d="M462.184,163.454c-3.527,0-6.203-1.456-6.248-1.481c-0.297-0.166-0.403-0.541-0.237-0.838
								c0.166-0.297,0.541-0.403,0.838-0.237c0.298,0.165,7.114,3.838,13.013-1.619c0.249-0.231,0.639-0.216,0.87,0.034
								c0.231,0.25,0.216,0.639-0.034,0.87C467.649,162.713,464.7,163.454,462.184,163.454z"/>
						</g>
					</g>
					<g>
						<g>
							<path style="fill:#E48888;" d="M463.183,166.975c-1.393,0-2.509-0.34-2.587-0.364c-0.325-0.101-0.506-0.447-0.404-0.771
								c0.101-0.324,0.446-0.505,0.77-0.404l0,0c0.027,0.008,2.758,0.833,4.678-0.253c0.296-0.168,0.671-0.063,0.839,0.233
								c0.167,0.296,0.063,0.672-0.233,0.839C465.263,166.809,464.155,166.975,463.183,166.975z"/>
						</g>
					</g>
					<g>
						<g>
							<path style="fill:#3B2539;" d="M450.183,139.62c1.325-0.712,3.26-1.591,5.142-1.866c1.011-0.148,1.646-1.164,1.302-2.126
								l-0.07-0.194c-0.249-0.695-0.939-1.131-1.673-1.053c-1.679,0.178-4.654,0.766-6.594,2.7c-0.42,0.419-0.566,1.041-0.388,1.607
								l0,0C448.203,139.645,449.3,140.095,450.183,139.62z"/>
						</g>
					</g>
					<g>
						<g>
							<path style="fill:#3B2539;" d="M475.661,139.62c-1.325-0.712-3.26-1.591-5.142-1.866c-1.011-0.148-1.646-1.164-1.302-2.126
								l0.07-0.194c0.249-0.695,0.939-1.131,1.673-1.053c1.679,0.178,4.654,0.766,6.594,2.7c0.42,0.419,0.566,1.041,0.388,1.607l0,0
								C477.64,139.645,476.544,140.095,475.661,139.62z"/>
						</g>
					</g>
					<g>
						<g>
							<g>
								<g>
									<g>
										<g>
											<g>
												<path style="fill:#3B2539;" d="M455.128,144.322c0.029,1.668-0.586,3.031-1.373,3.045
													c-0.788,0.014-1.45-1.327-1.479-2.995c-0.029-1.668,0.586-3.031,1.373-3.045
													C454.437,141.313,455.099,142.654,455.128,144.322z"/>
											</g>
										</g>
									</g>
								</g>
							</g>
						</g>
						<g>
							<g>
								<g>
									<g>
										<g>
											<g>
												<path style="fill:#3B2539;" d="M470.034,144.322c-0.029,1.668,0.586,3.031,1.374,3.045
													c0.788,0.014,1.45-1.327,1.479-2.995c0.029-1.668-0.586-3.031-1.373-3.045
													C470.725,141.313,470.064,142.654,470.034,144.322z"/>
											</g>
										</g>
									</g>
								</g>
							</g>
						</g>
					</g>
				</g>
			</g>
			<path style="fill:#DD504F;" d="M432.415,190.188c0,0-11.249-2.325-21.539,1.215l-21.539,3.955l1.604,37.445
				c0,0,25.276,1.204,35.707-4.948C429.69,226.062,432.415,190.188,432.415,190.188z"/>
			<path style="fill:#DD504F;" d="M499.902,194.744c0,0,12.203,2.086,21.832,9.709s23.671,31.695,23.671,31.695l-34.357,19.659
				L499.902,194.744z"/>
			<path style="fill:#ECB6A0;" d="M542.122,238.025c0,0,22.868,29.744,24.12,40.073c1.252,10.329-45.052,58.358-45.052,58.358
				l-9.158-13.534l24.3-44.816l-20.839-24.845L542.122,238.025z"/>
			<path style="fill:#ECB6A0;" d="M486.021,329.453c2.033-1.262,5.375-2.763,6.56-3.282c0.018-0.038,0.03-0.081,0.05-0.118
				l0.353-0.057c0.011-0.005,0.029-0.013,0.029-0.013l0.002,0.008l19.018-3.068c0,0,12.864,9.262,9.158,13.534
				c-3.357,3.869-16.725,8.777-19.215,9.667l0,0l-0.001,0c-0.258,0.092-0.4,0.142-0.4,0.142s-0.007-0.009-0.008-0.011l-4.785,1.53
				c0,0-2.33,5.253-4.364,5.044c-2.034-0.21,0.001-7.084,2.2-8.45c1.172-0.728,2.835-1.543,4.137-2.149
				c-0.053-0.081-0.106-0.161-0.161-0.243l-4.521,1.445c0,0-2.651,5.979-4.967,5.74c-2.316-0.239,0-8.062,2.503-9.617
				c1.173-0.729,2.78-1.534,4.159-2.187c-0.044-0.078-0.089-0.156-0.133-0.235l-4.384,1.402c0,0-2.651,5.979-4.967,5.74
				c-2.316-0.239,0-8.062,2.503-9.617c1.276-0.792,3.065-1.677,4.515-2.355c-0.06-0.154-0.118-0.306-0.174-0.457l-4.642,1.484
				c0,0-2.651,5.979-4.967,5.74C481.202,338.831,483.518,331.007,486.021,329.453z"/>
		</g>
		<g>
			<polygon style="fill:#D55B5D;" points="391.439,275.523 386.551,257.832 375.378,264.05 			"/>
			<g>
				<path style="fill:#4F1E4A;" d="M351.731,171.991c3.163,7.509,0.865,11.133-2.525,14.286c-0.034,0.031-0.068,0.063-0.102,0.094
					c-7.039,6.518-8.18,0-16.18,5.222c-8,5.23-13.891,3.886-24.832,3.919c-10.941,0.033-9.792-6.509-17.728-3.919
					c-7.935,2.591-11.357-0.334-15.015-5.222c-3.43-4.579,0.106-14.159,0.57-15.381c0.008-0.024,0.016-0.041,0.025-0.065
					c0.016-0.041,0.024-0.057,0.024-0.057c1.589-3.666,2.208-8.31,4.049-16.18c0.261-1.116,0.546-2.306,0.864-3.568
					c0.35-1.385,0.733-2.852,1.165-4.416c0.253-0.912,0.522-1.792,0.798-2.648c4.22-12.962,16.31-21.158,29.231-20.71
					c12.921-0.448,25.003,7.748,29.231,20.71c0.277,0.855,0.538,1.735,0.79,2.648c0.432,1.564,0.823,3.031,1.165,4.416
					c0.326,1.263,0.611,2.452,0.872,3.568C346.578,165.139,349.622,166.984,351.731,171.991z"/>
			</g>
			<g>
				<path style="fill:#684868;" d="M371.619,222.317c-2.323-7.758-7.123-11.005-13.337-12.599
					c-3.007-0.773-10.591-2.984-17.614-5.056c-7.484-2.211-14.333-4.267-14.333-4.267l-11.392-0.911l-0.071-0.004l-0.073,0.004
					l-12.626,1.009c0,0-7.628,2.376-15.451,4.751c-2.242,0.681-4.5,1.362-6.598,1.989c-3.703,1.103-6.912,2.033-8.665,2.484
					c-6.214,1.594-11.013,4.841-13.337,12.599c-2.323,7.758,0.988,55.654,0.988,55.654l4.813,51.438h98.537l4.935-51.438h2.722
					C370.116,277.971,373.942,230.075,371.619,222.317z"/>
				<g>
					<polygon style="fill:#5848BC;" points="314.943,199.473 314.943,199.484 314.873,199.48 					"/>
				</g>
				<g>
					<polygon style="fill:#5848BC;" points="314.873,199.48 314.8,199.484 314.8,199.473 					"/>
				</g>
			</g>
			<g>
				<g>
					<g>
						<path style="fill:#E38680;" d="M326.133,203.492c0,0-3.143,5.881-11.928,5.881c-8.487,0-12.061-6.173-12.061-6.173l0.519-4.23
							l0.087-0.711l0.816-6.661l20.999,0.586l0.351,2.533l0.116,0.83L326.133,203.492z"/>
					</g>
					<g>
						<path style="fill:#F2EDFD;" d="M334.367,212.59c-5.226,6.728-16.561,3.107-20.244-1.814
							c-3.684,4.921-15.019,8.542-20.246,1.814c-5.033-6.477,8.603-12.122,8.603-12.122c1.394,6.274,9.045,8.286,11.644,8.771
							c2.601-0.487,10.199-2.496,11.591-8.771C325.714,200.469,339.4,206.113,334.367,212.59z"/>
					</g>
					<g>
						<path style="fill:#3B2539;" d="M324.915,194.716c-4.757,4.033-12.453,5.567-22.253,4.253l0.087-0.711l0.816-6.661
							l20.999,0.586L324.915,194.716z"/>
					</g>
				</g>
				<g>
					<g>
						<path style="fill:#D55B5D;" d="M295.68,174.26c-4.697,6.557-14.813,2.126-14.123-6.577c0.625-7.895,9.443-6.643,9.443-6.643
							L295.68,174.26z"/>
					</g>
					<g>
						<path style="fill:#EAA940;" d="M290.802,177.667c0,1.611-1.306,2.918-2.918,2.918c-1.612,0-2.918-1.306-2.918-2.918
							c0-1.612,1.306-2.918,2.918-2.918C289.496,174.749,290.802,176.056,290.802,177.667z"/>
					</g>
					<g>
						<path style="fill:#B33A41;" d="M291.356,174.427c-0.282,0-0.538-0.192-0.608-0.478c-0.916-3.735-4.795-7.223-4.834-7.258
							c-0.259-0.23-0.282-0.626-0.052-0.885c0.23-0.259,0.626-0.282,0.885-0.052c0.171,0.152,4.208,3.778,5.219,7.896
							c0.082,0.336-0.123,0.676-0.459,0.758C291.455,174.421,291.405,174.427,291.356,174.427z"/>
					</g>
					<g>
						<path style="fill:#B33A41;" d="M289.739,170.879c-0.066,0-0.133-0.011-0.199-0.033c-1.717-0.575-3.358-0.226-3.374-0.222
							c-0.338,0.075-0.672-0.139-0.747-0.476c-0.075-0.338,0.137-0.672,0.474-0.747c0.08-0.018,1.986-0.432,4.045,0.257
							c0.328,0.11,0.505,0.465,0.395,0.793C290.245,170.713,290.001,170.879,289.739,170.879z"/>
					</g>
				</g>
				<g>
					<g>
						<path style="fill:#D55B5D;" d="M330.461,174.26c4.697,6.557,14.813,2.126,14.123-6.577c-0.625-7.895-9.443-6.643-9.443-6.643
							L330.461,174.26z"/>
					</g>
					<g>
						<path style="fill:#EAA940;" d="M341.435,177.667c0,1.611-1.306,2.918-2.918,2.918c-1.611,0-2.918-1.306-2.918-2.918
							c0-1.612,1.306-2.918,2.918-2.918C340.129,174.749,341.435,176.056,341.435,177.667z"/>
					</g>
					<g>
						<path style="fill:#B33A41;" d="M334.785,174.427c-0.049,0-0.1-0.006-0.15-0.018c-0.336-0.083-0.542-0.422-0.459-0.758
							c1.01-4.118,5.047-7.744,5.219-7.896c0.259-0.23,0.655-0.207,0.885,0.052c0.23,0.258,0.207,0.654-0.052,0.885
							c-0.039,0.035-3.918,3.523-4.834,7.258C335.323,174.236,335.067,174.427,334.785,174.427z"/>
					</g>
					<g>
						<path style="fill:#B33A41;" d="M336.401,170.879c-0.262,0-0.507-0.166-0.594-0.428c-0.11-0.328,0.067-0.684,0.396-0.793
							c2.059-0.689,3.965-0.275,4.045-0.257c0.338,0.076,0.55,0.411,0.474,0.749c-0.076,0.337-0.41,0.55-0.747,0.475l0,0
							c-0.016-0.004-1.657-0.352-3.374,0.222C336.534,170.868,336.467,170.879,336.401,170.879z"/>
					</g>
				</g>
				<g>
					<path style="fill:#E38680;" d="M289.128,151.455c0,0-2.294,14.227,3.652,28.14c5.389,12.611,12.558,16.541,20.187,16.661
						c8.676,0.136,26.844-4.881,23.968-46.049C334.992,122.391,291.425,123.373,289.128,151.455z"/>
				</g>
				<g>
					<path style="fill:#4F1E4A;" d="M287.884,157.743c0,0,0.455,8.812,4.111,8.48c3.657-0.331,1.881-20.181,1.881-20.181
						s3.257,4.806,9.203,4.283c5.945-0.522,0.553-8.253,0.553-8.253s5.487,7.626,10.507,7.313c5.02-0.313,0-9.716,0-9.716
						s6.556,10.656,11.273,10.343c4.716-0.313,0.722-9.194,0.722-9.194s3.754,9.822,7.338,10.552c0,0-0.902,14.469,2.931,13.86
						s2.415-16.785,0.839-21.695c-1.576-4.91-10.019-17.238-26.274-15.671C294.712,129.432,288.174,138.416,287.884,157.743z"/>
				</g>
				<g>
					<path style="fill:#4F1E4A;" d="M297.231,158.661c0,0,3.325-4.624,9.052-5.223c0.931-0.098,1.752,0.616,1.808,1.551l0.001,0.015
						c0.057,0.946-0.69,1.743-1.637,1.757C304.303,156.791,300.527,157.096,297.231,158.661z"/>
				</g>
				<g>
					<path style="fill:#4F1E4A;" d="M329.363,158.661c0,0-3.324-4.624-9.052-5.223c-0.931-0.098-1.752,0.616-1.808,1.551
						l-0.001,0.015c-0.057,0.946,0.69,1.743,1.637,1.757C322.291,156.791,326.067,157.096,329.363,158.661z"/>
				</g>
				<g>
					<path style="fill:#D55B5D;" d="M314.044,188.87c-1.788,0-3.199-0.624-3.293-0.667c-0.263-0.119-0.379-0.429-0.26-0.691
						c0.119-0.263,0.428-0.38,0.691-0.26c0.045,0.02,3.262,1.425,5.841-0.273c0.241-0.159,0.565-0.092,0.723,0.149
						c0.159,0.241,0.092,0.565-0.149,0.723C316.418,188.627,315.158,188.87,314.044,188.87z"/>
				</g>
				<g>
					<path style="fill:#D55B5D;" d="M315.894,175.557c-0.014,0-0.028-0.001-0.042-0.002l-3.82-0.308
						c-0.288-0.023-0.502-0.275-0.479-0.563c0.023-0.288,0.275-0.498,0.563-0.479l3.194,0.257l-0.997-9.71
						c-0.03-0.287,0.179-0.543,0.466-0.573c0.288-0.03,0.543,0.179,0.573,0.466l1.061,10.335c0.016,0.154-0.038,0.308-0.146,0.419
						C316.169,175.501,316.034,175.557,315.894,175.557z"/>
				</g>
				<g>
					<path style="fill:#F2EDFD;" d="M305.848,179.723c4.697,0.732,9.486,1.05,15.883-0.223c0,0-0.554,6.839-8.153,6.87
						C307.115,186.396,305.848,179.723,305.848,179.723z"/>
				</g>
				<g>
					<path style="fill:#3B2539;" d="M305.471,164.7c0,1.812-0.823,3.28-1.839,3.28c-1.016,0-1.839-1.469-1.839-3.28
						c0-1.811,0.823-3.28,1.839-3.28C304.647,161.42,305.471,162.889,305.471,164.7z"/>
				</g>
				<g>
					<path style="fill:#3B2539;" d="M325.031,164.7c0,1.812-0.823,3.28-1.839,3.28c-1.016,0-1.839-1.469-1.839-3.28
						c0-1.811,0.823-3.28,1.839-3.28C324.208,161.42,325.031,162.889,325.031,164.7z"/>
				</g>
				<g>
					<g>
						<path style="fill:#D55B5D;" d="M298.75,171.427c0,0.311-0.252,0.564-0.564,0.564c-0.311,0-0.564-0.253-0.564-0.564
							c0-0.312,0.253-0.564,0.564-0.564C298.497,170.863,298.75,171.116,298.75,171.427z"/>
					</g>
					<g>
						<path style="fill:#D55B5D;" d="M301.503,172.789c0,0.311-0.253,0.564-0.564,0.564s-0.564-0.253-0.564-0.564
							c0-0.312,0.253-0.564,0.564-0.564S301.503,172.477,301.503,172.789z"/>
					</g>
					<g>
						<path style="fill:#D55B5D;" d="M298.75,174.749c0,0.312-0.252,0.564-0.564,0.564c-0.311,0-0.564-0.253-0.564-0.564
							c0-0.311,0.253-0.564,0.564-0.564C298.497,174.185,298.75,174.438,298.75,174.749z"/>
					</g>
					<g>
						<circle style="fill:#D55B5D;" cx="302.515" cy="175.314" r="0.564"/>
					</g>
					<g>
						<path style="fill:#D55B5D;" d="M305.964,174.749c0,0.312-0.253,0.564-0.564,0.564c-0.311,0-0.564-0.253-0.564-0.564
							c0-0.311,0.253-0.564,0.564-0.564C305.712,174.185,305.964,174.438,305.964,174.749z"/>
					</g>
					<g>
						<path style="fill:#D55B5D;" d="M304.652,171.991c0,0.312-0.252,0.564-0.564,0.564c-0.311,0-0.564-0.252-0.564-0.564
							c0-0.311,0.253-0.564,0.564-0.564C304.4,171.427,304.652,171.68,304.652,171.991z"/>
					</g>
				</g>
				<g>
					<g>
						<path style="fill:#D55B5D;" d="M329.176,171.427c0,0.311,0.253,0.564,0.564,0.564c0.311,0,0.564-0.253,0.564-0.564
							c0-0.312-0.253-0.564-0.564-0.564C329.429,170.863,329.176,171.116,329.176,171.427z"/>
					</g>
					<g>
						<path style="fill:#D55B5D;" d="M326.422,172.789c0,0.311,0.253,0.564,0.564,0.564c0.312,0,0.564-0.253,0.564-0.564
							c0-0.312-0.253-0.564-0.564-0.564C326.675,172.225,326.422,172.477,326.422,172.789z"/>
					</g>
					<g>
						<path style="fill:#D55B5D;" d="M329.176,174.749c0,0.312,0.253,0.564,0.564,0.564c0.311,0,0.564-0.253,0.564-0.564
							c0-0.311-0.253-0.564-0.564-0.564C329.429,174.185,329.176,174.438,329.176,174.749z"/>
					</g>
					<g>
						<circle style="fill:#D55B5D;" cx="325.411" cy="175.314" r="0.564"/>
					</g>
					<g>
						<path style="fill:#D55B5D;" d="M321.962,174.749c0,0.312,0.253,0.564,0.564,0.564s0.564-0.253,0.564-0.564
							c0-0.311-0.253-0.564-0.564-0.564S321.962,174.438,321.962,174.749z"/>
					</g>
					<g>
						<path style="fill:#D55B5D;" d="M323.274,171.991c0,0.312,0.253,0.564,0.564,0.564c0.312,0,0.564-0.252,0.564-0.564
							c0-0.311-0.252-0.564-0.564-0.564C323.526,171.427,323.274,171.68,323.274,171.991z"/>
					</g>
				</g>
				<g>
					<g>
						<path style="fill:#F2EDFD;" d="M302.896,175.444c-5.079,0-9.212-4.132-9.212-9.212c0-5.079,4.132-9.212,9.212-9.212
							c5.079,0,9.212,4.132,9.212,9.212C312.107,171.312,307.975,175.444,302.896,175.444z M302.896,157.857
							c-4.618,0-8.376,3.757-8.376,8.376c0,4.618,3.757,8.376,8.376,8.376c4.619,0,8.376-3.758,8.376-8.376
							C311.272,161.614,307.514,157.857,302.896,157.857z"/>
					</g>
					<g>
						<path style="fill:#F2EDFD;" d="M325.072,175.444c-5.079,0-9.212-4.132-9.212-9.212c0-5.079,4.132-9.212,9.212-9.212
							c5.079,0,9.212,4.132,9.212,9.212C334.284,171.312,330.152,175.444,325.072,175.444z M325.072,157.857
							c-4.619,0-8.376,3.757-8.376,8.376c0,4.618,3.757,8.376,8.376,8.376c4.618,0,8.376-3.758,8.376-8.376
							C333.448,161.614,329.691,157.857,325.072,157.857z"/>
					</g>
					<g>
						<path style="fill:#F2EDFD;" d="M333.345,163.663c-0.1,0-0.201-0.036-0.281-0.109c-0.171-0.155-0.183-0.42-0.028-0.59
							c0.114-0.125,2.837-3.059,6.916-2.389c0.228,0.038,0.382,0.252,0.345,0.48c-0.037,0.228-0.252,0.381-0.48,0.345
							c-3.637-0.598-6.137,2.099-6.162,2.126C333.571,163.617,333.458,163.663,333.345,163.663z"/>
					</g>
					<g>
						<path style="fill:#F2EDFD;" d="M294.689,163.492c-0.109,0-0.218-0.043-0.3-0.127c-0.047-0.048-3.337-3.342-7.401-1.981
							c-0.218,0.073-0.456-0.045-0.529-0.264c-0.073-0.219,0.045-0.456,0.264-0.529c4.58-1.533,8.117,2.039,8.266,2.192
							c0.161,0.166,0.157,0.43-0.009,0.591C294.899,163.453,294.794,163.492,294.689,163.492z"/>
					</g>
					<g>
						<path style="fill:#F2EDFD;" d="M311.69,165.389c-0.009,0-0.018,0-0.027-0.001c-0.23-0.015-0.405-0.214-0.39-0.444
							c0.047-0.732,0.675-2.117,2.711-2.117c2.036,0,2.664,1.385,2.712,2.117c0.015,0.23-0.159,0.429-0.39,0.444
							c-0.232,0.015-0.429-0.16-0.444-0.39c-0.011-0.133-0.161-1.335-1.878-1.335c-1.77,0-1.874,1.28-1.877,1.335
							C312.092,165.219,311.908,165.389,311.69,165.389z"/>
					</g>
				</g>
			</g>
			<path style="fill:#684868;" d="M266.333,211.647c0,0-4.431-0.747-13.16,9.713c-8.729,10.46-16.759,39.789-16.759,39.789
				l24.615,9.602c0,0,7.158-13.202,9.951-29.558C273.774,224.837,266.333,211.647,266.333,211.647z"/>
			<path style="fill:#684868;" d="M360.045,210.25c0,0,4.431-0.747,13.16,9.713c8.729,10.46,16.759,39.789,16.759,39.789
				l-24.615,9.602c0,0-7.158-13.202-9.951-29.558C352.604,223.44,360.045,210.25,360.045,210.25z"/>
			<path style="fill:#E38680;" d="M326.791,218.07c2.484,0.118,6.744,1.25,10.259,2.309l2.48-10.035l-0.008-0.002
				c0.116-0.553,0.4-1.693,0.788-3.154l0.001-0.003l0,0c1.3-4.894,3.785-13.431,5.197-15.967c1.835-3.293,3.873-0.958,3.291,1.151
				c-0.45,1.627-2.154,12.319-2.909,17.122l0.2,0.083c1.138-4.457,4.001-14.556,5.559-17.353c1.835-3.293,3.873-0.958,3.291,1.151
				c-0.503,1.822-2.579,15.005-3.135,18.564l0.153,0.063c1.264-4.808,3.855-13.783,5.31-16.394c1.835-3.293,3.874-0.958,3.291,1.151
				c-0.385,1.392-1.688,9.423-2.53,14.722c1.536-4.088,3.437-8.772,4.542-10.428c1.919-2.875,3.61-0.591,2.923,1.294
				c-0.471,1.291-2.37,9.04-3.521,13.795l-2.876,13.784l4.177,7.89l-16.787,7.681l-4.374-9.166l-6.515-8.17
				c-2.845-1.982-6.76-4.639-8.624-5.584C323.858,220.996,322.021,217.844,326.791,218.07z"/>
			<g>
				<path style="fill:#D55B5D;" d="M357.642,216.41c-0.075,0.007-0.153-0.004-0.227-0.035l-15.099-6.298
					c-0.243-0.101-0.358-0.381-0.257-0.624c0.101-0.243,0.38-0.359,0.624-0.257l15.099,6.298c0.243,0.101,0.358,0.381,0.257,0.624
					C357.968,216.287,357.813,216.394,357.642,216.41z"/>
			</g>
			<g>
				<path style="fill:#D55B5D;" d="M344.841,226.605c-0.21,0.02-0.414-0.102-0.491-0.309c-1.389-3.747-5.357-5.281-5.397-5.296
					c-0.246-0.093-0.371-0.368-0.278-0.614c0.093-0.247,0.367-0.372,0.614-0.279c0.179,0.067,4.412,1.694,5.956,5.858
					c0.092,0.247-0.034,0.521-0.282,0.613C344.923,226.592,344.882,226.602,344.841,226.605z"/>
			</g>
			<path style="fill:#E38680;" d="M346.486,245.495c0,0,15.437,34.217,21.931,40.502c6.495,6.285,12.081,6.052,17.202,4.423
				c5.121-1.629,8.147-9.311,5.819-14.897c-2.328-5.587-28.754-38.821-28.754-38.821S347.622,241.305,346.486,245.495z"/>
			<polygon style="fill:#D55B5D;" points="238.133,280.027 243.021,262.337 254.194,268.555 			"/>
			<path style="fill:#E38680;" d="M302.781,222.575c-2.484,0.118-6.744,1.25-10.259,2.309l-2.48-10.035l0.008-0.002
				c-0.116-0.553-0.4-1.693-0.788-3.154l-0.001-0.003h0c-1.3-4.894-3.785-13.431-5.197-15.967c-1.835-3.293-3.873-0.958-3.291,1.151
				c0.449,1.627,2.153,12.319,2.909,17.122l-0.2,0.083c-1.138-4.457-4.001-14.556-5.559-17.353
				c-1.835-3.293-3.874-0.958-3.291,1.151c0.503,1.822,2.579,15.005,3.135,18.564l-0.153,0.063
				c-1.264-4.808-3.855-13.783-5.31-16.394c-1.835-3.293-3.874-0.958-3.291,1.151c0.385,1.392,1.688,9.423,2.529,14.722
				c-1.535-4.088-3.436-8.771-4.542-10.428c-1.918-2.875-3.61-0.591-2.923,1.294c0.471,1.291,2.37,9.04,3.521,13.795l2.876,13.784
				l-4.177,7.89L283.085,250l4.374-9.166l6.515-8.17c2.845-1.982,6.76-4.639,8.624-5.584
				C305.714,225.501,307.551,222.349,302.781,222.575z"/>
			<g>
				<path style="fill:#D55B5D;" d="M271.929,220.915c0.075,0.007,0.153-0.004,0.228-0.035l15.099-6.298
					c0.243-0.101,0.358-0.381,0.257-0.624c-0.101-0.243-0.38-0.359-0.624-0.257l-15.099,6.298c-0.243,0.101-0.358,0.381-0.257,0.624
					C271.603,220.792,271.759,220.899,271.929,220.915z"/>
			</g>
			<g>
				<path style="fill:#D55B5D;" d="M284.73,231.11c0.21,0.02,0.414-0.102,0.491-0.309c1.389-3.747,5.357-5.281,5.397-5.296
					c0.246-0.093,0.371-0.368,0.278-0.614c-0.093-0.247-0.367-0.372-0.614-0.279c-0.18,0.067-4.412,1.694-5.956,5.858
					c-0.092,0.247,0.034,0.521,0.282,0.613C284.648,231.097,284.689,231.106,284.73,231.11z"/>
			</g>
			<path style="fill:#E38680;" d="M283.085,250c0,0-15.437,34.217-21.931,40.502c-6.495,6.285-12.081,6.052-17.202,4.423
				c-5.121-1.629-8.147-9.311-5.819-14.897c2.328-5.586,28.754-38.821,28.754-38.821S281.949,245.81,283.085,250z"/>
			<path style="fill:#4F1E4A;" d="M262.23,311.328h101.964c0,0,10.108,57.48,9.86,85.412H252.315
				C252.315,396.74,253.83,336.891,262.23,311.328z"/>
		</g>
		<g>
			<polygon style="fill:#352C38;" points="102.018,332.757 98.927,396.098 148.418,396.098 152.608,373.286 157.263,377.243 
				160.056,396.098 209.263,396.098 205.679,332.757 			"/>
			<polygon style="fill:#FFAC9D;" points="82.388,249.224 76.583,277.971 98.927,277.971 102.018,259.698 			"/>
			<polygon style="fill:#FFAC9D;" points="218.133,255.859 230.54,262.084 251.033,245.077 232.509,230.499 			"/>
			<g>
				<g>
					<g>
						<path style="fill:#76413B;" d="M144.109,181.975c0,0-10.99,6.928-5.017,17.44c5.973,10.512,47.305,7.645,26.041-17.44
							C147.568,161.253,144.109,181.975,144.109,181.975z"/>
					</g>
					<g>
						<path style="fill:#76413B;" d="M184.331,155.217c0,0-4.778,5.734-3.823,11.468c1.375,8.251-11.229,19.113-24.13,15.529
							c-12.901-3.584,0.956-27.714,0.956-27.714L184.331,155.217z"/>
						<path style="fill:#76413B;" d="M124.04,155.217c0,0,4.778,5.734,3.823,11.468c-1.375,8.251,11.229,19.113,24.13,15.529
							c12.901-3.584-0.956-27.714-0.956-27.714L124.04,155.217z"/>
						<path style="fill:#965450;" d="M156.829,173.265c5.942,0.08,11.863-0.976,17.202-3.712c2.825-1.448,4.762-3.434,6.436-5.669
							c0.54-4.661,3.865-8.666,3.865-8.666l-26.997-0.717c0,0-5.875,10.237-6.408,18.366
							C152.903,173.097,154.876,173.238,156.829,173.265z"/>
						<path style="fill:#965450;" d="M127.969,165.684c8.806,4.677,19.087,7.45,28.859,7.581c0.213,0.003,0.425-0.007,0.637-0.007
							c-0.364-8.188-6.429-18.757-6.429-18.757l-26.997,0.717C124.04,155.217,128.274,160.302,127.969,165.684z"/>
					</g>
				</g>
				<g>
					<g>
						<path style="fill:#FFAC9D;" d="M168.624,193.93c-6.079-3.316-4.421-19.346-4.421-19.346l-9.105,0.587v-0.585l-0.974,0.292
							l-0.974-0.292v0.585l-9.105-0.587c0,0,1.658,16.029-4.421,19.346c-6.079,3.316-43.437,4.974-39.568,42.003h53.094h1.949
							h53.094C212.061,198.904,174.704,197.245,168.624,193.93z"/>
						<path style="fill:#CC887F;" d="M142.768,189.794c7.273-1.084,14.54-2.203,21.803-3.355
							c-1.022-5.527-0.368-11.855-0.368-11.855l-9.105,0.587v-0.585l-0.974,0.292l-0.974-0.292v0.585l-9.105-0.587
							C144.045,174.584,145.005,183.898,142.768,189.794z"/>
					</g>
					<g>
						<path style="fill:#4F1E4A;" d="M180.989,196.781c-5.322,4.822-13.175,8.163-22.14,9.026l-4.829,17.385l-2.555-17.247
							c-9.715-0.562-18.271-4.021-23.947-9.164c-12.625,4.045-31.066,12.815-28.314,39.151h54.058h1.985h54.058
							C212.055,209.596,193.613,200.827,180.989,196.781z"/>
						<g>
							<path style="fill:#684868;" d="M152.119,210.368l-0.655-4.422c-9.715-0.562-18.271-4.021-23.947-9.164
								c-2.145,0.687-4.417,1.516-6.697,2.539C125.298,205.406,137.484,209.884,152.119,210.368z"/>
							<path style="fill:#684868;" d="M188.428,199.657c-2.528-1.183-5.061-2.113-7.439-2.875
								c-5.322,4.822-13.175,8.163-22.14,9.026l-1.265,4.553C171.859,209.852,183.778,205.543,188.428,199.657z"/>
						</g>
						<path style="fill:#684868;" d="M152.924,227.391c0,1.109,0.899,2.008,2.008,2.008c1.109,0,2.008-0.899,2.008-2.008
							c0-1.109-0.899-2.008-2.008-2.008C153.823,225.384,152.924,226.283,152.924,227.391z"/>
					</g>
				</g>
				<g>
					<g>
						<g>
							<path style="fill:#CC887F;" d="M136.322,151.121c-1.791-5.557-6.033-4.271-6.43-4.136c-0.416,0.049-4.801,0.7-4.043,6.489
								c0.762,5.824,4.141,8.98,7.31,8.053C136.42,161.009,138.124,156.711,136.322,151.121z"/>
							<path style="fill:#CC887F;" d="M172.089,151.121c1.791-5.557,6.033-4.271,6.43-4.136c0.416,0.049,4.801,0.7,4.043,6.489
								c-0.762,5.824-4.141,8.98-7.31,8.053C171.992,161.009,170.287,156.711,172.089,151.121z"/>
							<path style="fill:#FFAC9D;" d="M131.977,142.703c2.22-24.362,20.741-22.998,22.487-22.814
								c1.747-0.183,20.268-1.548,22.487,22.814c2.233,24.507-8.683,40.513-22.487,39.633
								C140.66,183.216,129.744,167.21,131.977,142.703z"/>
						</g>
						<g>
							<path style="fill:#76413B;" d="M134.263,154.212c-0.433-2.276-0.754-4.742-0.906-7.357c-0.956-16.485-2.15,0.478-2.15,0.478
								s-0.129,3.475,0.371,8.263C132.477,155.14,133.37,154.675,134.263,154.212z"/>
							<path style="fill:#76413B;" d="M177.817,154.424c0.184-2.771,0.183-5.696-0.022-8.764l-2.389-0.239
								c0,0-0.214,3.469-0.772,7.848C175.698,153.648,176.759,154.032,177.817,154.424z"/>
						</g>
					</g>
					<g>
						<g>
							<path style="fill:#CC887F;" d="M157.658,145.559c0.739,2.223,1.184,4.478,1.531,6.743c0.157,1.135,0.319,2.269,0.412,3.411
								c0.118,1.139,0.185,2.284,0.229,3.431l0.017,0.443l-0.302,0.178c-0.739,0.436-1.493,0.85-2.256,1.251
								c-0.772,0.387-1.541,0.78-2.356,1.105c0.597-0.643,1.24-1.218,1.88-1.799c0.649-0.567,1.307-1.121,1.98-1.653l-0.285,0.621
								c-0.208-1.129-0.392-2.261-0.527-3.398c-0.158-1.135-0.248-2.277-0.343-3.419
								C157.481,150.188,157.423,147.89,157.658,145.559z"/>
						</g>
						<g>
							<path style="fill:#352C38;" d="M171.931,143.753c-1.153-0.476-2.159-0.91-3.125-1.26c-0.963-0.349-1.869-0.581-2.734-0.657
								c-0.865-0.078-1.722-0.025-2.652,0.272c-0.49,0.079-0.935,0.339-1.469,0.495c-0.519,0.196-1.006,0.476-1.635,0.666
								c0.182-0.59,0.449-1.157,0.788-1.686c0.393-0.479,0.779-1.012,1.343-1.362c1.033-0.814,2.492-1.217,3.864-1.074
								c1.38,0.123,2.631,0.722,3.591,1.535C170.852,141.509,171.607,142.527,171.931,143.753z"/>
						</g>
						<g>
							<path style="fill:#352C38;" d="M148.86,143.753c-1.153-0.476-2.159-0.91-3.125-1.26c-0.963-0.349-1.869-0.581-2.735-0.657
								c-0.865-0.078-1.722-0.025-2.652,0.272c-0.489,0.079-0.935,0.339-1.469,0.495c-0.519,0.196-1.006,0.476-1.635,0.666
								c0.182-0.59,0.449-1.157,0.788-1.686c0.393-0.479,0.779-1.012,1.343-1.362c1.033-0.814,2.492-1.217,3.863-1.074
								c1.38,0.123,2.631,0.722,3.591,1.535C147.781,141.509,148.536,142.527,148.86,143.753z"/>
						</g>
						<g>
							<path style="fill:#352C38;" d="M148.128,152.581c-0.367-1.022-0.815-1.986-1.468-2.689c-0.646-0.701-1.473-1.084-2.404-1.066
								c-0.945-0.04-1.799,0.232-2.378,0.95c-0.589,0.714-0.909,1.74-1.107,2.805c-0.29-1.05-0.273-2.255,0.336-3.33
								c0.297-0.54,0.799-0.983,1.369-1.274c0.586-0.253,1.209-0.356,1.807-0.344c1.214-0.021,2.498,0.669,3.114,1.696
								C148.051,150.33,148.247,151.495,148.128,152.581z"/>
						</g>
						<g>
							<path style="fill:#352C38;" d="M168.86,152.247c-0.367-1.022-0.815-1.986-1.468-2.689c-0.646-0.701-1.473-1.084-2.404-1.066
								c-0.945-0.04-1.798,0.232-2.378,0.95c-0.589,0.714-0.909,1.739-1.106,2.805c-0.29-1.05-0.273-2.255,0.336-3.33
								c0.297-0.54,0.798-0.983,1.369-1.274c0.586-0.253,1.209-0.356,1.807-0.344c1.214-0.02,2.498,0.669,3.114,1.696
								C168.783,149.996,168.979,151.161,168.86,152.247z"/>
						</g>
						<path style="fill:#FFFFFF;" d="M163.907,166.499c-4.41,4.286-11.878,4.048-17.536,0.229"/>
					</g>
					<g>
						<g>
							<path style="fill:#76413B;" d="M154.795,123.441c0,0-13.379-2.389-15.529,5.973c-2.15,8.362,0.956,19.591-8.84,17.918
								c0,0-7.103,1.434-2.563,12.662c0,0-13.444-12.901-5.56-22.219c6.432-7.601,3.823-24.13,19.591-26.758
								C157.662,108.39,154.795,120.336,154.795,123.441z"/>
						</g>
						<g>
							<path style="fill:#965450;" d="M154.795,123.441c0,0-13.379-2.389-15.529,5.973c-2.15,8.362,0.956,19.591-8.84,17.918
								c0,0-7.103,1.434-2.563,12.662c0,0-13.444-12.901-5.56-22.219c6.432-7.601,3.823-24.13,19.591-26.758
								C157.662,108.39,154.795,120.336,154.795,123.441z"/>
						</g>
						<g>
							<path style="fill:#965450;" d="M153.576,123.441c0,0,13.379-2.389,15.529,5.973c2.15,8.362-0.956,19.591,8.84,17.918
								c0,0,7.103,1.434,2.563,12.662c0,0,13.444-12.901,5.56-22.219c-6.432-7.601-3.823-24.13-19.591-26.758
								C150.709,108.39,153.576,120.336,153.576,123.441z"/>
						</g>
						<g>
							<g>
								<path style="fill:#965450;" d="M153.338,121.083c1.901-0.03,3.67,0.12,5.496,0.424c1.809,0.306,3.61,0.824,5.333,1.647
									c1.702,0.825,3.388,2.021,4.474,3.772c0.542,0.864,0.916,1.833,1.113,2.814c0.195,0.985,0.252,1.85,0.301,2.769
									c0.198,3.614-0.334,7.114-0.156,10.48c0.114,1.649,0.411,3.344,1.493,4.418c1.07,1.104,2.852,1.36,4.532,1.309l0.047-0.001
									l0.011,0.002c0.56,0.089,1.064,0.245,1.568,0.449c0.497,0.207,0.976,0.471,1.394,0.815c0.416,0.344,0.771,0.772,0.982,1.265
									c0.221,0.489,0.283,1.028,0.251,1.544c-0.025-0.518-0.146-1.031-0.404-1.467c-0.249-0.44-0.618-0.794-1.033-1.067
									c-0.835-0.537-1.858-0.793-2.819-0.86l0.057,0c-0.89,0.096-1.802,0.135-2.727-0.006c-0.918-0.137-1.863-0.495-2.626-1.14
									c-0.769-0.637-1.306-1.513-1.625-2.404c-0.33-0.894-0.506-1.807-0.625-2.709c-0.416-3.606-0.154-7.11-0.48-10.473
									c-0.079-0.822-0.191-1.702-0.375-2.423c-0.181-0.722-0.48-1.394-0.894-1.994c-0.834-1.197-2.111-2.106-3.555-2.755
									c-1.447-0.656-3.054-1.049-4.686-1.325c-1.621-0.268-3.35-0.398-4.942-0.365L153.338,121.083z"/>
							</g>
						</g>
					</g>
				</g>
			</g>
			<path style="fill:#4F1E4A;" d="M99.202,235.932l-0.276,115.124l109.425,0.688l0.952-115.812
				C209.303,235.932,103.852,230.197,99.202,235.932z"/>
			<path style="fill:#684868;" d="M193.742,202.374c0,0,6.448,0.577,14.731,5.012c13.254,7.096,26.524,23.113,26.524,23.113
				l-16.219,28.125l-9.199-2.303L193.742,202.374z"/>
			<path style="fill:#FFAC9D;" d="M219.218,185.832l11.322,76.252c0,0,17.584,1.612,23.111-12.696
				c5.527-14.307-16.974-61.747-16.974-61.747L219.218,185.832z"/>
			<path style="fill:#FFAC9D;" d="M202.765,168.586c2.486-0.041,6.81,0.818,10.385,1.651l1.836-10.172l-0.008-0.001
				c0.081-0.56,0.291-1.715,0.585-3.198l0.001-0.003l0,0c0.986-4.967,2.922-13.645,4.17-16.266c1.622-3.403,3.805-1.202,3.357,0.939
				c-0.345,1.652-1.365,12.432-1.813,17.272l0.205,0.07c0.852-4.521,3.066-14.781,4.443-17.672c1.621-3.403,3.805-1.202,3.357,0.939
				c-0.386,1.85-1.618,15.139-1.947,18.726l0.156,0.053c0.955-4.878,2.97-14,4.256-16.699c1.622-3.403,3.805-1.202,3.357,0.939
				c-0.295,1.414-1.085,9.512-1.587,14.853c1.272-4.177,2.871-8.973,3.869-10.696c1.732-2.991,3.565-0.819,2.999,1.105
				c-0.388,1.318-1.79,9.173-2.635,13.992l-2.3,16.09l1.523,8.872l-16.59,4.311l-1.167-7.861l-7.022-7.739
				c-2.965-1.797-7.041-4.199-8.962-5.023C200.024,171.692,197.991,168.664,202.765,168.586z"/>
			<g>
				<path style="fill:#CC887F;" d="M233.449,164.964c-0.075,0.012-0.153,0.006-0.229-0.02l-15.469-5.324
					c-0.249-0.086-0.382-0.357-0.296-0.606c0.085-0.249,0.356-0.383,0.606-0.296l15.469,5.324c0.249,0.086,0.382,0.357,0.296,0.606
					C233.766,164.821,233.617,164.938,233.449,164.964z"/>
			</g>
			<g>
				<path style="fill:#CC887F;" d="M221.323,175.954c-0.208,0.033-0.42-0.076-0.51-0.278c-1.625-3.651-5.682-4.929-5.723-4.942
					c-0.252-0.077-0.393-0.344-0.317-0.595c0.077-0.252,0.342-0.395,0.595-0.318c0.183,0.055,4.511,1.409,6.317,5.467
					c0.107,0.241-0.001,0.522-0.242,0.63C221.404,175.936,221.363,175.948,221.323,175.954z"/>
			</g>
			<path style="fill:#684868;" d="M112.907,203.574c0,0-10.06,0-19.184,10.907c-6.776,8.101-19.813,34.466-19.813,34.466
				l28.107,10.75L112.907,203.574z"/>
			<path style="fill:#FFAC9D;" d="M77.484,273.509c0,0-4.526,15.411-3.574,34.265c0.952,18.854,25.016,54.804,25.016,54.804
				l13.179-13.268l-12.331-36.312l-0.848-37.709L77.484,273.509z"/>
			<path style="fill:#FFAC9D;" d="M108.381,345.586c0,0,12.57,12.104,15.828,16.992c3.259,4.888,3.259,4.888,3.259,4.888
				l-23.277,8.38l-6.482-15.13L108.381,345.586z"/>
			<path style="fill:#FFAC9D;" d="M114.783,353.501c0,0,4.888,0.815,8.38,1.862c3.491,1.048,11.057,2.561,10.94,4.19
				c-0.116,1.629-2.444,1.978-6.634,1.164c-4.19-0.815-4.19-0.815-4.19-0.815l-2.91,0.233L114.783,353.501z"/>
		</g>
	</g>
</g>
</svg>
